<?xml version="1.0" encoding="UTF-8"?>
<svg version="1.1" xmlns="http://www.w3.org/2000/svg" width="121" height="116">
<path d="M0 0 C4.96870095 4.25888653 5.08541667 8.81790046 5.875 15 C9.28598139 38.57557015 23.15079987 68.89946961 42.015625 84.0390625 C51.13783533 91.44484721 51.13783533 91.44484721 52.6328125 96.984375 C52.74975024 100.74197454 52.7454239 103.65723575 51.625 107.25 C48.35789216 110.51710784 45.53117537 112.12001945 40.83203125 112.46875 C36.26836789 112.0164223 32.55802816 109.45683709 28.625 107.25 C25.95147025 105.84704477 23.25979896 104.48161302 20.5625 103.125 C19.86987061 102.77630859 19.17724121 102.42761719 18.46362305 102.06835938 C4.18717742 94.98030394 -8.89783944 93.33586221 -24.35546875 97.77734375 C-32.44585317 100.53976704 -39.9903945 104.99902122 -47.28686523 109.40429688 C-52.27624636 112.38477638 -54.68560373 112.97246302 -60.375 112.25 C-63.47852458 110.64076503 -65.59201424 109.24652733 -67.75 106.5 C-69.11863039 101.5729306 -69.07986693 97.75167303 -66.9375 93.1875 C-64.74972481 90.67956258 -62.89379802 89.06690474 -60.25 87.125 C-39.30848985 71.35043108 -24.94931656 40.51085883 -20.375 15.25 C-20.10625674 12.91519043 -19.87649197 10.58601523 -19.70043945 8.24243164 C-19.04104751 4.20544917 -16.77418851 1.3493624 -13.625 -1.125 C-8.40862133 -2.57399408 -4.72603481 -2.45053657 0 0 Z M-8.375 56.25 C-10.685 60.87 -12.995 65.49 -15.375 70.25 C-10.425 70.25 -5.475 70.25 -0.375 70.25 C-1.77472369 66.05082894 -2.67272423 63.40399389 -4.9375 59.875 C-5.37191406 59.18664063 -5.80632813 58.49828125 -6.25390625 57.7890625 C-6.62386719 57.28117187 -6.99382813 56.77328125 -7.375 56.25 C-7.705 56.25 -8.035 56.25 -8.375 56.25 Z " fill="#2883F3" transform="translate(69.375,2.75)"/>
<path d="M0 0 C0.33 0 0.66 0 1 0 C1.08451416 0.54188965 1.16902832 1.0837793 1.25610352 1.64208984 C3.02763665 12.66109556 5.20666328 22.9172072 9.80102539 33.13623047 C11.73249835 37.56753222 12.44791913 40.345067 11 45 C9.20746356 48.80355377 7.09410595 52.34645346 5 56 C9.95 56.33 14.9 56.66 20 57 C20 57.99 20 58.98 20 60 C18.96101563 60.56847656 17.92203125 61.13695312 16.8515625 61.72265625 C7.77475624 66.73118804 -0.93050438 71.88103481 -9 78.4375 C-11 80 -11 80 -13 80 C-13.226875 80.57234375 -13.45375 81.1446875 -13.6875 81.734375 C-15.35992245 84.62129471 -17.38140185 86.19470494 -20 88.25 C-20.886875 88.95640625 -21.77375 89.6628125 -22.6875 90.390625 C-25 92 -25 92 -27 92 C-26.67 92.99 -26.34 93.98 -26 95 C-31.34809964 98.56539976 -34.55451624 99.81847413 -41 99 C-44.10352458 97.39076503 -46.21701424 95.99652733 -48.375 93.25 C-49.74363039 88.3229306 -49.70486693 84.50167303 -47.5625 79.9375 C-45.37472481 77.42956258 -43.51879802 75.81690474 -40.875 73.875 C-18.59482946 57.09206108 -6.54111197 26.07441461 0 0 Z " fill="#1D85F0" transform="translate(50,16)"/>
<path d="M0 0 C0.80179688 0.00451172 1.60359375 0.00902344 2.4296875 0.01367188 C4.41149006 0.02546832 6.39325433 0.04340395 8.375 0.0625 C8.375 1.0525 8.375 2.0425 8.375 3.0625 C7.33601563 3.63097656 6.29703125 4.19945313 5.2265625 4.78515625 C-4.59710594 10.20580249 -13.97617144 15.85514287 -22.625 23.0625 C-23.285 22.7325 -23.945 22.4025 -24.625 22.0625 C-24.14873169 21.37474487 -24.14873169 21.37474487 -23.6628418 20.6730957 C-22.21113254 18.57482909 -20.76179992 16.47493141 -19.3125 14.375 C-18.81298828 13.65376953 -18.31347656 12.93253906 -17.79882812 12.18945312 C-15.73775309 9.20021185 -13.72940184 6.24090223 -11.89453125 3.10546875 C-9.17986534 -1.26305515 -4.60052493 -0.0485445 0 0 Z " fill="#146AEE" transform="translate(61.625,72.9375)"/>
<path d="M0 0 C0.33 0 0.66 0 1 0 C1.08451416 0.54188965 1.16902832 1.0837793 1.25610352 1.64208984 C3.17543335 13.58039685 5.89258277 24.46042494 10.609375 35.60546875 C12 39 12 39 12 41 C11.34 41 10.68 41 10 41 C4.21771337 30.71511312 0.81254639 19.78192266 0 8 C-0.99 8.495 -0.99 8.495 -2 9 C-1.34 6.03 -0.68 3.06 0 0 Z " fill="#1D64D7" transform="translate(50,16)"/>
<path d="M0 0 C8.13695602 0.27123187 13.93179365 3.08916501 21 7 C20.67 7.66 20.34 8.32 20 9 C10 5 10 5 0 1 C0 0.67 0 0.34 0 0 Z " fill="#216CE5" transform="translate(76,74)"/>
<path d="M0 0 C0.33 1.32 0.66 2.64 1 4 C-5.59090909 9 -5.59090909 9 -9 9 C-9 8.34 -9 7.68 -9 7 C-7.02053408 5.63636792 -5.0180755 4.30581356 -3 3 C-1.20605554 1.37648891 -1.20605554 1.37648891 0 0 Z " fill="#216CF0" transform="translate(32,101)"/>
</svg>
